<svg width="25" height="25" viewBox="0 0 25 25" fill="none" xmlns="http://www.w3.org/2000/svg">
<g clip-path="url(#clip0_2602_983)">
<path d="M24.9881 12.7343C24.9881 11.71 24.903 10.9626 24.7189 10.1875H12.749V14.8104H19.7751C19.6335 15.9593 18.8686 17.6894 17.1687 18.852L17.1448 19.0068L20.9295 21.8716L21.1917 21.8971C23.5998 19.724 24.9881 16.5267 24.9881 12.7343Z" fill="#4285F4"/>
<path d="M12.749 24.9142C16.1912 24.9142 19.081 23.8069 21.1917 21.8969L17.1687 18.8517C16.0921 19.5853 14.6472 20.0974 12.749 20.0974C9.37764 20.0974 6.51621 17.9244 5.49619 14.9209L5.34668 14.9333L1.41133 17.9092L1.35986 18.049C3.45635 22.1182 7.7627 24.9142 12.749 24.9142Z" fill="#34A853"/>
<path d="M5.49619 14.9209C5.22705 14.1458 5.07129 13.3153 5.07129 12.4572C5.07129 11.599 5.22705 10.7685 5.48203 9.99343L5.4749 9.82835L1.49023 6.80469L1.35986 6.86528C0.495801 8.55392 0 10.4502 0 12.4572C0 14.4641 0.495801 16.3603 1.35986 18.049L5.49619 14.9209Z" fill="#FBBC05"/>
<path d="M12.749 4.8167C15.143 4.8167 16.7578 5.8271 17.6786 6.67147L21.2767 3.23884C19.0669 1.23187 16.1912 0 12.749 0C7.76269 0 3.45635 2.7959 1.35986 6.86517L5.48203 9.99332C6.51621 6.98979 9.37764 4.8167 12.749 4.8167Z" fill="#EB4335"/>
</g>
<defs>
<clipPath id="clip0_2602_983">
<rect width="25" height="25" fill="white"/>
</clipPath>
</defs>
</svg>
